<?xml version="1.0" encoding="UTF-8" standalone="no"?><svg width="16" height="16" viewBox="0 0 16 16" fill="none" xmlns="http://www.w3.org/2000/svg">
<path d="M13.0422 4.37187L14 3.45156V3.25H10.6828L8.31875 9.1625L5.62969 3.25H2.15156V3.45156L3.27031 4.80469C3.37969 4.90469 3.43594 5.05156 3.42188 5.19844V10.5156C3.45625 10.7078 3.39531 10.9031 3.26094 11.0422L2 12.5781V12.7766H5.57188V12.575L4.3125 11.0437C4.24502 10.9752 4.19427 10.8921 4.16419 10.8008C4.1341 10.7094 4.12551 10.6124 4.13906 10.5172V5.91719L7.275 12.7797H7.63906L10.3359 5.91719V11.3844C10.3359 11.5281 10.3359 11.5578 10.2422 11.6531L9.27188 12.5953V12.7969H13.9781V12.5953L13.0422 11.675C12.9609 11.6125 12.9188 11.5078 12.9359 11.4062V4.64062C12.9278 4.59041 12.9334 4.53895 12.9521 4.49165C12.9708 4.44436 13.0019 4.40298 13.0422 4.37187V4.37187Z" fill="black"/>
</svg>
