<?xml version="1.0" encoding="UTF-8" standalone="no"?><svg width="16" height="16" viewBox="0 0 16 16" fill="none" xmlns="http://www.w3.org/2000/svg">
<path d="M15.7621 3.29134C15.2054 3.53801 14.6074 3.70468 13.9788 3.78001C14.6274 3.39187 15.1127 2.78099 15.3441 2.06134C14.7347 2.42334 14.0677 2.67814 13.3721 2.81468C12.9043 2.31525 12.2848 1.98423 11.6096 1.87299C10.9345 1.76176 10.2415 1.87654 9.63825 2.19951C9.03501 2.52249 8.55527 3.03559 8.27353 3.65915C7.99178 4.28271 7.92378 4.98184 8.08009 5.64801C6.84521 5.58601 5.63717 5.26504 4.53437 4.70595C3.43157 4.14685 2.45865 3.36212 1.67876 2.40268C1.41209 2.86268 1.25876 3.39601 1.25876 3.96401C1.25846 4.47534 1.38438 4.97884 1.62534 5.42983C1.86631 5.88083 2.21486 6.26537 2.64009 6.54934C2.14694 6.53365 1.66467 6.4004 1.23342 6.16068V6.20068C1.23337 6.91784 1.48144 7.61293 1.93554 8.16801C2.38964 8.72309 3.0218 9.10396 3.72476 9.24601C3.26728 9.36982 2.78765 9.38806 2.32209 9.29934C2.52042 9.91642 2.90675 10.456 3.427 10.8426C3.94725 11.2292 4.57537 11.4435 5.22342 11.4553C4.12331 12.319 2.76468 12.7874 1.36609 12.7853C1.11834 12.7854 0.870807 12.7709 0.624756 12.742C2.04441 13.6548 3.69698 14.1392 5.38476 14.1373C11.0981 14.1373 14.2214 9.40534 14.2214 5.30134C14.2214 5.16801 14.2181 5.03334 14.2121 4.90001C14.8196 4.46066 15.344 3.91661 15.7608 3.29334L15.7621 3.29134V3.29134Z" fill="black"/>
</svg>
